<?xml version="1.0" encoding="utf-8"?>
<!DOCTYPE svg PUBLIC "-//W3C//DTD SVG 1.1//EN" "http://www.w3.org/Graphics/SVG/1.1/DTD/svg11.dtd">
<svg version="1.1" id="Шар_1" xmlns="http://www.w3.org/2000/svg" xmlns:xlink="http://www.w3.org/1999/xlink" x="0px" y="0px"
	 width="47.354px" height="47.076px" viewBox="0 0 47.354 47.076" enable-background="new 0 0 47.354 47.076" xml:space="preserve">
<g>
	<path fill="#B27FE6" d="M0.047,38.436h1.44v1.439c0,1.584,0.564,2.941,1.692,4.068c1.127,1.128,2.484,1.691,4.068,1.691h7.2
		c1.584,0,2.94-0.563,4.068-1.691c1.127-1.127,1.692-2.484,1.692-4.068v-10.08c-0.673,0.864-1.501,1.56-2.484,2.088
		c-0.984,0.529-2.077,0.792-3.276,0.792h-7.2c-2.016,0-3.721-0.695-5.112-2.088c-1.393-1.392-2.088-3.096-2.088-5.112v-25.2h1.44
		v25.2c0,1.584,0.564,2.941,1.692,4.068c1.127,1.128,2.484,1.692,4.068,1.692h7.2c1.584,0,2.94-0.564,4.068-1.692
		c1.127-1.127,1.692-2.484,1.692-4.068v-25.2h1.44v39.6c0,2.017-0.696,3.721-2.088,5.112c-1.393,1.393-3.096,2.088-5.112,2.088h-7.2
		c-2.016,0-3.721-0.695-5.112-2.088c-1.393-1.392-2.088-3.096-2.088-5.112V38.436z"/>
	<path fill="#B27FE6" d="M44.686,7.475c0-1.584-0.564-2.939-1.691-4.068c-1.129-1.127-2.484-1.692-4.068-1.692h-7.2
		c-1.584,0-2.94,0.564-4.067,1.692c-1.129,1.128-1.692,2.484-1.692,4.068v3.6c0,1.584,0.563,2.941,1.692,4.068
		c1.127,1.128,2.483,1.692,4.067,1.692h7.2c2.017,0,3.72,0.697,5.112,2.088c1.392,1.393,2.088,3.096,2.088,5.112v15.84
		c0,2.017-0.696,3.721-2.088,5.112c-1.393,1.393-3.096,2.088-5.112,2.088h-7.2c-2.016,0-3.72-0.695-5.111-2.088
		c-1.394-1.392-2.088-3.096-2.088-5.112v-1.439h1.439v1.439c0,1.584,0.563,2.941,1.692,4.068c1.127,1.128,2.483,1.691,4.067,1.691
		h7.2c1.584,0,2.939-0.563,4.068-1.691c1.127-1.127,1.691-2.484,1.691-4.068v-15.84c0-1.584-0.564-2.939-1.691-4.068
		c-1.129-1.127-2.484-1.692-4.068-1.692h-7.2c-2.016,0-3.72-0.695-5.111-2.088c-1.394-1.392-2.088-3.096-2.088-5.112v-3.6
		c0-2.016,0.694-3.719,2.088-5.112c1.392-1.392,3.096-2.088,5.111-2.088h7.2c2.017,0,3.72,0.696,5.112,2.088
		c1.392,1.393,2.088,3.096,2.088,5.112v1.44h-1.44V7.475z"/>
</g>
<g>
	<path fill="#7333B2" d="M1.44,38.436h1.44v1.439c0,1.584,0.564,2.941,1.692,4.068c1.127,1.128,2.484,1.691,4.068,1.691h7.2
		c1.584,0,2.94-0.563,4.068-1.691c1.127-1.127,1.692-2.484,1.692-4.068v-10.08c-0.673,0.864-1.501,1.56-2.484,2.088
		c-0.984,0.529-2.077,0.792-3.276,0.792h-7.2c-2.016,0-3.721-0.695-5.112-2.088c-1.393-1.392-2.088-3.096-2.088-5.112v-25.2h1.44
		v25.2c0,1.584,0.564,2.941,1.692,4.068c1.127,1.128,2.484,1.692,4.068,1.692h7.2c1.584,0,2.94-0.564,4.068-1.692
		c1.127-1.127,1.692-2.484,1.692-4.068v-25.2h1.44v39.6c0,2.017-0.696,3.721-2.088,5.112c-1.393,1.393-3.096,2.088-5.112,2.088h-7.2
		c-2.016,0-3.721-0.695-5.112-2.088c-1.393-1.392-2.088-3.096-2.088-5.112V38.436z"/>
	<path fill="#7333B2" d="M46.079,7.475c0-1.584-0.564-2.939-1.691-4.068c-1.129-1.127-2.484-1.692-4.068-1.692h-7.2
		c-1.584,0-2.94,0.564-4.067,1.692c-1.129,1.128-1.692,2.484-1.692,4.068v3.6c0,1.584,0.563,2.941,1.692,4.068
		c1.127,1.128,2.483,1.692,4.067,1.692h7.2c2.017,0,3.72,0.697,5.112,2.088c1.392,1.393,2.088,3.096,2.088,5.112v15.84
		c0,2.017-0.696,3.721-2.088,5.112c-1.393,1.393-3.096,2.088-5.112,2.088h-7.2c-2.016,0-3.72-0.695-5.111-2.088
		c-1.394-1.392-2.088-3.096-2.088-5.112v-1.439h1.439v1.439c0,1.584,0.563,2.941,1.692,4.068c1.127,1.128,2.483,1.691,4.067,1.691
		h7.2c1.584,0,2.939-0.563,4.068-1.691c1.127-1.127,1.691-2.484,1.691-4.068v-15.84c0-1.584-0.564-2.939-1.691-4.068
		c-1.129-1.127-2.484-1.692-4.068-1.692h-7.2c-2.016,0-3.72-0.695-5.111-2.088c-1.394-1.392-2.088-3.096-2.088-5.112v-3.6
		c0-2.016,0.694-3.719,2.088-5.112c1.392-1.392,3.096-2.088,5.111-2.088h7.2c2.017,0,3.72,0.696,5.112,2.088
		c1.392,1.393,2.088,3.096,2.088,5.112v1.44h-1.44V7.475z"/>
</g>
<g>
	<g>
		<path fill="#B27FE6" d="M-0.067,38.436h1.44v1.439c0,1.584,0.564,2.941,1.692,4.068c1.127,1.128,2.484,1.691,4.068,1.691h7.2
			c1.584,0,2.94-0.563,4.068-1.691c1.127-1.127,1.692-2.484,1.692-4.068v-10.08c-0.673,0.864-1.501,1.56-2.484,2.088
			c-0.984,0.529-2.077,0.792-3.276,0.792h-7.2c-2.016,0-3.721-0.695-5.112-2.088c-1.393-1.392-2.088-3.096-2.088-5.112v-25.2h1.44
			v25.2c0,1.584,0.564,2.941,1.692,4.068c1.127,1.128,2.484,1.692,4.068,1.692h7.2c1.584,0,2.94-0.564,4.068-1.692
			c1.127-1.127,1.692-2.484,1.692-4.068v-25.2h1.44v39.6c0,2.017-0.696,3.721-2.088,5.112c-1.393,1.393-3.096,2.088-5.112,2.088
			h-7.2c-2.016,0-3.721-0.695-5.112-2.088c-1.393-1.392-2.088-3.096-2.088-5.112V38.436z"/>
	</g>
	<g>
		<path fill="#B27FE6" d="M44.572,7.475c0-1.584-0.564-2.939-1.691-4.068c-1.129-1.127-2.484-1.692-4.068-1.692h-7.2
			c-1.584,0-2.94,0.564-4.067,1.692c-1.129,1.128-1.692,2.484-1.692,4.068v3.6c0,1.584,0.563,2.941,1.692,4.068
			c1.127,1.128,2.483,1.692,4.067,1.692h7.2c2.017,0,3.72,0.697,5.112,2.088c1.392,1.393,2.088,3.096,2.088,5.112v15.84
			c0,2.017-0.696,3.721-2.088,5.112c-1.393,1.393-3.096,2.088-5.112,2.088h-7.2c-2.016,0-3.72-0.695-5.111-2.088
			c-1.394-1.392-2.088-3.096-2.088-5.112v-1.439h1.439v1.439c0,1.584,0.563,2.941,1.692,4.068c1.127,1.128,2.483,1.691,4.067,1.691
			h7.2c1.584,0,2.939-0.563,4.068-1.691c1.127-1.127,1.691-2.484,1.691-4.068v-15.84c0-1.584-0.564-2.939-1.691-4.068
			c-1.129-1.127-2.484-1.692-4.068-1.692h-7.2c-2.016,0-3.72-0.695-5.111-2.088c-1.394-1.392-2.088-3.096-2.088-5.112v-3.6
			c0-2.016,0.694-3.719,2.088-5.112c1.392-1.392,3.096-2.088,5.111-2.088h7.2c2.017,0,3.72,0.696,5.112,2.088
			c1.392,1.393,2.088,3.096,2.088,5.112v1.44h-1.44V7.475z"/>
	</g>
</g>
<g>
</g>
</svg>
